<?xml version="1.0" encoding="utf-8"?>
<!-- Generator: Adobe Illustrator 16.0.3, SVG Export Plug-In . SVG Version: 6.00 Build 0)  -->
<!DOCTYPE svg PUBLIC "-//W3C//DTD SVG 1.1//EN" "http://www.w3.org/Graphics/SVG/1.1/DTD/svg11.dtd">
<svg version="1.1" xmlns="http://www.w3.org/2000/svg" xmlns:xlink="http://www.w3.org/1999/xlink" x="0px" y="0px" width="1042px"
	 height="1764px" viewBox="0 0 1042 1764" enable-background="new 0 0 1042 1764" xml:space="preserve">
<g id="Layer_1" display="none">
	<g display="inline">
		<rect x="418.637" y="458.358" fill="#E2B686" width="220.743" height="55.39"/>
		<polygon fill="#093756" points="127.045,1442.004 72.673,1432.737 184.449,776.497 238.81,785.764 		"/>
		<path fill="#ED5949" d="M926.723,1475.584c-142.43,0.726-633.435-1.403-829.701-2.129c-14.275-0.048-31.217-39.712-31.217-39.712
			h903.872C969.677,1433.743,941.009,1475.515,926.723,1475.584"/>
		<path fill="#6CADAD" d="M603.378,1372.877c0,40.319-32.669,72.987-72.978,72.987c-40.309,0-72.977-32.668-72.977-72.987V903.285
			c0-40.31,32.668-72.978,72.977-72.978c40.309,0,72.978,32.668,72.978,72.978V1372.877z"/>
		<path fill="#89CDCC" d="M685.796,1145.464c0,40.297-32.667,72.965-72.977,72.965c-40.32,0-72.978-32.668-72.978-72.965
			l-97.934-279.948c0-40.297,130.591-262.632,170.911-262.632c40.31,0,72.977,32.674,72.977,72.988V1145.464z"/>
		<path fill="#89CDCC" d="M815.825,1362.65c11.35,20.641-8.085,53.099-43.409,72.521c-35.313,19.423-73.142,18.44-84.489-2.176
			l-132.171-240.378c-11.338-20.616,8.097-53.098,43.409-72.52c35.312-19.399,73.141-18.441,84.479,2.176L815.825,1362.65z"/>
		<path fill="#FEDCB7" d="M393.503,433.839c1.837,18.024,15.223,32.264,29.966,32.264l215.911,0.135c-0.526,1.27,0-7.88,0-7.88
			l23.261-152.997l-283.236-10.572L393.503,433.839z"/>
		<path fill="#FBAB21" d="M623.83,480.607l-211.887,12.502c-23.39,8.839-34.33,102.357-15.246,165.681l42.262,196.897
			l260.725-25.379l1.252-183.933C709.548,580.787,668.209,476.985,623.83,480.607"/>
		<path fill="#89CDCC" d="M438.948,855.687l2.984,9.829c8.413,27.929,34.973,47.035,60.012,45l143.93-11.724
			c25.039-2.048,48.147-25.215,51.927-54.15l1.872-14.334L438.948,855.687z"/>
		<path fill="#F8CB91" d="M463.041,801.279c0,6.389,5.148,11.56,11.537,11.56h57.625c6.377,0,11.561-5.171,11.561-11.56V590.118
			c0-6.383-5.184-11.548-11.561-11.548h-57.625c-6.389,0-11.537,5.166-11.537,11.548V801.279z"/>
		<path fill="#F8CB91" d="M263.942,739.804c-8.015,0-14.509,5.172-14.509,11.561v57.626c0,6.376,6.494,11.548,14.509,11.548h265.511
			c8.038,0,14.532-5.172,14.532-11.548v-57.626c0-6.389-6.494-11.561-14.532-11.561H263.942z"/>
		<path fill="#DD9027" d="M545.974,647.252c0,6.376-5.429,11.537-12.122,11.537h-58.573c-6.681,0-12.121-5.161-12.121-11.537
			V525.285c0-6.383,5.44-11.537,12.121-11.537h58.573c6.693,0,12.122,5.154,12.122,11.537V647.252z"/>
		<path fill="#ED5949" d="M666.068,305.49c2.984-17.106,3.394-34.125,1.696-50.623l-5.124,50.495L666.068,305.49z"/>
		<path fill="#ED5949" d="M369.61,294.432l9.794,0.369l-5.991-59.182C369.143,254.422,367.61,274.231,369.61,294.432"/>
		<path fill="#ED5949" d="M641.567,178.895c-25.133-39.378-66.073-66.669-116.666-68.553
			c-54.748-2.037-100.579,26.326-128.134,69.109c-10.846,16.808-18.756,35.868-23.354,56.169l5.991,59.169l283.248,10.572
			l5.112-50.495C664.91,227.166,655.76,201.126,641.567,178.895"/>
		<path fill="#6CADAD" d="M446.542,1356.824c-49.517,0-89.65,40.132-89.65,89.65h179.275
			C536.168,1396.956,496.048,1356.824,446.542,1356.824"/>
		<rect x="446.542" y="1356.824" fill="#6CADAD" width="158.086" height="89.65"/>
		<path fill="#89CDCC" d="M664.325,1398.548c-41.571,22.489-53.788,80.406-27.32,129.338l150.517-81.411
			C761.043,1397.519,705.898,1376.06,664.325,1398.548"/>
		<polygon fill="#89CDCC" points="844.982,1415.373 712.274,1487.191 664.325,1398.548 797.046,1326.729 		"/>
		<path fill="#ED5949" d="M260.959,791.708c-3.919,23.027-25.765,38.518-48.803,34.587c-23.027-3.92-38.53-25.765-34.599-48.792
			c3.92-23.038,25.765-38.542,48.803-34.61C249.387,746.801,264.891,768.657,260.959,791.708"/>
		<path fill="#093756" d="M249.82,789.801c-2.89,16.872-18.897,28.222-35.757,25.355c-16.884-2.878-28.222-18.896-25.367-35.757
			c2.89-16.873,18.896-28.222,35.769-25.355C241.337,756.922,252.687,772.939,249.82,789.801"/>
		<path fill="#093756" d="M229.156,1487.917c0,22.092-17.889,39.969-39.969,39.969c-22.091,0-39.993-17.877-39.993-39.969
			c0-22.067,17.901-39.969,39.993-39.969C211.267,1447.948,229.156,1465.85,229.156,1487.917"/>
		<path fill="#093756" d="M859.047,1500.437c0,22.091-17.9,39.97-39.992,39.97c-22.08,0-39.969-17.879-39.969-39.97
			s17.889-39.969,39.969-39.969C841.146,1460.468,859.047,1478.346,859.047,1500.437"/>
		<path fill="#ED5949" d="M457.423,281.456c0,8.975-7.277,16.247-16.251,16.247H266.493c-8.962,0-16.24-7.272-16.24-16.247
			c0-8.974,7.278-16.24,16.24-16.24h174.679C450.146,265.216,457.423,272.482,457.423,281.456"/>
	</g>
</g>
<g id="Layer_3" display="none">
	<path display="inline" fill="#123F5A" d="M636.063,927.194c0,0-143.381,150.326-172.047,199.988v416.898h60.919v-416.898
		c28.681-49.662,172.062-199.988,172.062-199.988H636.063z"/>
	<path display="inline" fill="#34647D" d="M636.063,927.194H194.695c0,0,172.164,202.042,173.766,205.194l-1.719,411.692h97.274
		v-416.898C492.682,1077.521,636.063,927.194,636.063,927.194"/>
	<path display="inline" fill="#D27F28" d="M445.843,227.265c-11.147,0-22.152,0.691-33.028,1.928
		C588.492,249.112,725.95,426.231,725.95,641.871c0,215.626-137.458,392.735-313.136,412.671c10.876,1.23,21.881,1.912,33.028,1.912
		c191.181,0,346.165-185.62,346.165-414.583C792.008,412.885,637.023,227.265,445.843,227.265"/>
	<path display="inline" fill="#FBAB21" d="M725.941,641.864c0-215.633-137.458-392.743-313.127-412.671
		C237.136,249.122,99.673,426.231,99.673,641.864c0,215.626,137.462,392.752,313.141,412.678
		C588.483,1034.616,725.941,857.49,725.941,641.864"/>
	
		<line display="inline" fill="none" stroke="#C7C6C6" stroke-width="3" stroke-miterlimit="10" x1="934.883" y1="1193.313" x2="98.863" y2="1196.114"/>
	
		<line display="inline" fill="none" stroke="#C7C6C6" stroke-width="3" stroke-miterlimit="10" x1="941.991" y1="1344.27" x2="105.969" y2="1347.066"/>
	
		<line display="inline" fill="none" stroke="#C7C6C6" stroke-width="3" stroke-miterlimit="10" x1="934.883" y1="1193.313" x2="826.609" y2="1344.267"/>
	
		<line display="inline" fill="none" stroke="#C7C6C6" stroke-width="3" stroke-miterlimit="10" x1="840.809" y1="1193.313" x2="728.986" y2="1344.267"/>
	
		<line display="inline" fill="none" stroke="#C7C6C6" stroke-width="3" stroke-miterlimit="10" x1="743.197" y1="1193.313" x2="631.373" y2="1344.267"/>
	
		<line display="inline" fill="none" stroke="#C7C6C6" stroke-width="3" stroke-miterlimit="10" x1="652.662" y1="1196.114" x2="540.837" y2="1347.066"/>
	
		<line display="inline" fill="none" stroke="#C7C6C6" stroke-width="3" stroke-miterlimit="10" x1="572.787" y1="1193.313" x2="460.964" y2="1344.27"/>
	
		<line display="inline" fill="none" stroke="#C7C6C6" stroke-width="3" stroke-miterlimit="10" x1="482.602" y1="1196.114" x2="370.778" y2="1347.066"/>
	
		<line display="inline" fill="none" stroke="#C7C6C6" stroke-width="3" stroke-miterlimit="10" x1="397.47" y1="1193.313" x2="285.647" y2="1344.267"/>
	
		<line display="inline" fill="none" stroke="#C7C6C6" stroke-width="3" stroke-miterlimit="10" x1="307.541" y1="1193.313" x2="195.715" y2="1344.267"/>
	
		<line display="inline" fill="none" stroke="#C7C6C6" stroke-width="3" stroke-miterlimit="10" x1="231.984" y1="1193.313" x2="120.166" y2="1344.267"/>
	
		<line display="inline" fill="none" stroke="#C7C6C6" stroke-width="3" stroke-miterlimit="10" x1="120.166" y1="1196.114" x2="228.44" y2="1347.066"/>
	
		<line display="inline" fill="none" stroke="#C7C6C6" stroke-width="3" stroke-miterlimit="10" x1="214.237" y1="1196.114" x2="326.063" y2="1347.066"/>
	
		<line display="inline" fill="none" stroke="#C7C6C6" stroke-width="3" stroke-miterlimit="10" x1="311.852" y1="1196.114" x2="423.67" y2="1347.066"/>
	
		<line display="inline" fill="none" stroke="#C7C6C6" stroke-width="3" stroke-miterlimit="10" x1="402.387" y1="1198.91" x2="514.21" y2="1349.863"/>
	
		<line display="inline" fill="none" stroke="#C7C6C6" stroke-width="3" stroke-miterlimit="10" x1="482.26" y1="1196.114" x2="594.085" y2="1347.066"/>
	
		<line display="inline" fill="none" stroke="#C7C6C6" stroke-width="3" stroke-miterlimit="10" x1="572.446" y1="1198.91" x2="684.271" y2="1349.863"/>
	
		<line display="inline" fill="none" stroke="#C7C6C6" stroke-width="3" stroke-miterlimit="10" x1="657.576" y1="1196.114" x2="769.398" y2="1347.066"/>
	
		<line display="inline" fill="none" stroke="#C7C6C6" stroke-width="3" stroke-miterlimit="10" x1="747.51" y1="1196.114" x2="859.33" y2="1347.066"/>
	
		<line display="inline" fill="none" stroke="#C7C6C6" stroke-width="3" stroke-miterlimit="10" x1="823.059" y1="1196.114" x2="934.883" y2="1347.066"/>
	<path display="inline" fill="#093756" d="M934.883,1145.689c0-11.765,9.539-21.299,21.301-21.299
		c11.76,0,21.303,9.534,21.303,21.299v222.977h-42.604V1145.689z"/>
	<path display="inline" fill="#093756" d="M77.566,1154.669c0-11.76,9.537-21.298,21.297-21.298
		c11.765,0,21.305,9.538,21.305,21.298v222.978H77.566V1154.669z"/>
	<path display="inline" fill="#FFFFFF" d="M752.756,1028.146c0,38.83,31.477,70.301,70.301,70.301
		c38.83,0,70.306-31.471,70.306-70.301s-31.476-70.301-70.306-70.301C784.232,957.846,752.756,989.316,752.756,1028.146"/>
</g>
<g id="Layer_4" display="none">
	<path display="inline" fill="#C24333" d="M344.193,233.728l0.882,108.599c0-77.476,62.818-140.3,140.296-140.3h64.759
		c72.209,0,131.658,54.577,139.42,124.722v-93.021c0-77.485-62.818-140.299-140.299-140.299h-64.758
		C407.011,93.429,344.193,156.243,344.193,233.728"/>
	<path display="inline" fill="#ED5949" d="M550.131,202.032h-64.754c-77.489,0-140.301,62.819-140.301,140.295v1078.948
		C352.83,1491.428,412.279,1546,484.494,1546h64.756c77.482,0,140.297-62.819,140.297-140.31V326.745
		C681.789,256.604,622.348,202.032,550.131,202.032"/>
	<path display="inline" fill="#D2E1E8" d="M679.404,1319.533H354.339c171.944-57.361,88.49-158.933,162.537-159.892
		C590.908,1158.681,526.283,1259.471,679.404,1319.533"/>
	<path display="inline" fill="#EFF3F6" d="M645.43,1289.248c18.766,0,33.975,13.562,33.975,30.285
		c0,16.727-15.209,30.282-33.975,30.282H388.304c-18.76,0-33.965-13.556-33.965-30.282c0-16.723,15.205-30.285,33.965-30.285H645.43
		z"/>
	<path display="inline" fill="#D2E1E8" d="M679.404,370.405H354.339c171.944,57.36,88.49,158.94,162.537,159.893
		C590.908,531.25,526.283,430.473,679.404,370.405"/>
	<path display="inline" fill="#EFF3F6" d="M645.43,400.691c18.766,0,33.975-13.565,33.975-30.282
		c0-16.73-15.209-30.286-33.975-30.286H388.304c-18.76,0-33.965,13.555-33.965,30.286c0,16.717,15.205,30.282,33.965,30.282H645.43z
		"/>
	<polygon display="inline" fill="#093756" points="545.486,1185.862 547.891,1220.288 519.272,1239.588 488.255,1224.446 
		485.854,1190.01 514.473,1170.724 	"/>
	<polygon display="inline" fill="#093756" points="545.486,459.176 547.891,493.604 519.272,512.899 488.255,497.765 
		485.851,463.332 514.47,444.033 	"/>
	<path display="inline" fill="#093756" d="M354.339,1208.248c26.689,0,48.321,21.639,48.321,48.32v125.925
		c0,26.688-21.632,48.324-48.321,48.324c-26.684,0-48.321-21.636-48.321-48.324v-125.925
		C306.018,1229.887,327.655,1208.248,354.339,1208.248"/>
	<path display="inline" fill="#093756" d="M679.404,1208.248c26.682,0,48.324,21.639,48.324,48.32v125.925
		c0,26.688-21.643,48.324-48.324,48.324s-48.32-21.636-48.32-48.324v-125.925C631.084,1229.887,652.723,1208.248,679.404,1208.248"
		/>
	<path display="inline" fill="#093756" d="M354.339,259.116c26.689,0,48.321,21.639,48.321,48.325v125.928
		c0,26.69-21.632,48.319-48.321,48.319c-26.684,0-48.321-21.629-48.321-48.319V307.441
		C306.018,280.755,327.655,259.116,354.339,259.116"/>
	<path display="inline" fill="#093756" d="M679.404,259.116c26.68,0,48.322,21.639,48.322,48.325v125.928
		c0,26.69-21.643,48.319-48.322,48.319c-26.684,0-48.32-21.629-48.32-48.319V307.441
		C631.084,280.755,652.721,259.116,679.404,259.116"/>
</g>
<g id="Layer_5" display="none">
	<path display="inline" fill="#FEDCB7" d="M578.412,1213.599c-0.614,6.032-5.101,10.794-10.035,10.794h-65.666
		c-4.934,0-9.421-4.762-10.031-10.794l-7.077-69.824c-0.86-8.452,3.359-15.52,9.445-15.52h80.992c6.086,0,10.3,7.067,9.449,15.52
		L578.412,1213.599z"/>
	<path display="inline" fill="#89CDCC" d="M535.547,1104.016c-36.308,0-60.964,34.913-55.95,71.576h111.899
		C596.506,1138.929,571.854,1104.016,535.547,1104.016"/>
	
		<line display="inline" fill="none" stroke="#F39922" stroke-width="3.325" stroke-miterlimit="10" x1="75.779" y1="867.959" x2="459.222" y2="1279.333"/>
	
		<line display="inline" fill="none" stroke="#F39922" stroke-width="3.325" stroke-miterlimit="10" x1="925.358" y1="867.959" x2="608.14" y2="1237.131"/>
	
		<line display="inline" fill="none" stroke="#F39922" stroke-width="3.325" stroke-miterlimit="10" x1="120.245" y1="867.959" x2="458.341" y2="1237.131"/>
	
		<line display="inline" fill="none" stroke="#F39922" stroke-width="3.325" stroke-miterlimit="10" x1="973.492" y1="867.959" x2="608.14" y2="1279.333"/>
	<rect x="494.861" y="1219.977" display="inline" fill="#E2B686" width="80.126" height="18.545"/>
	<path display="inline" fill="#89CDCC" d="M578.467,1230.781h-85.678c-14.906,0-25.829,14.25-24.463,31.193l6.692,82.748
		l121.362-1.765l6.546-80.983C604.3,1245.031,593.367,1230.781,578.467,1230.781"/>
	<rect x="492.793" y="1230.781" display="inline" fill="#79BCBE" width="11.309" height="112.998"/>
	<path display="inline" fill="#093756" d="M542.76,1276.763v28.562c0,2.135,1.73,3.864,3.869,3.864h24.484
		c2.136,0,3.874-1.729,3.874-3.864v-27.276L542.76,1276.763z"/>
	<path display="inline" fill="#EFF3F6" d="M571.113,1265.367h-24.484c-2.139,0-3.869,1.734-3.869,3.869v7.526l32.219,1.286v-8.812
		C574.979,1267.102,573.249,1265.367,571.113,1265.367"/>
	<path display="inline" fill="#89CDCC" d="M529.965,1534.526c0,2.135-1.399,3.864-3.113,3.864H485.14
		c-1.718,0-3.112-1.729-3.112-3.864V1353c0-2.131,1.395-3.865,3.112-3.865h41.711c1.714,0,3.113,1.734,3.113,3.865V1534.526z"/>
	<path display="inline" fill="#89CDCC" d="M586.258,1349.135h-41.714c-1.716,0-3.112,1.734-3.112,3.868v90.015h47.938v-90.015
		C589.369,1350.869,587.976,1349.135,586.258,1349.135"/>
	<rect x="563.678" y="1230.781" display="inline" fill="#79BCBE" width="11.31" height="112.998"/>
	<path display="inline" fill="#79BCBE" d="M475.022,1344.723l0.354,4.412c1.058,13.08,11.986,23.343,24.443,23.343h71.617
		c12.456,0,23.385-10.263,24.441-23.343l0.502-6.177L475.022,1344.723z"/>
	<path display="inline" fill="#79BCBE" d="M541.432,1410.934v68.946c0,1.617,1.396,2.915,3.118,2.915h41.708
		c1.72,0,3.107-1.298,3.107-2.915v-68.946H541.432z"/>
	<path display="inline" fill="#093756" d="M565.403,1460.096c-13.92,0-25.2,13.276-25.2,29.644h50.398
		C590.602,1473.372,579.318,1460.096,565.403,1460.096"/>
	<path display="inline" fill="#093756" d="M505.994,1516.163c-13.915,0-25.195,13.271-25.195,29.643h50.398
		C531.197,1529.434,519.908,1516.163,505.994,1516.163"/>
	<path display="inline" fill="#F8CB91" d="M482.028,1327.022c0,2.14-1.73,3.869-3.865,3.869h-19.29
		c-2.135,0-3.866-1.729-3.866-3.869v-70.68c0-2.131,1.731-3.86,3.866-3.86h19.29c2.135,0,3.865,1.729,3.865,3.86V1327.022z"/>
	<path display="inline" fill="#F8CB91" d="M526.213,1306.454c2.043,0,3.698,1.729,3.698,3.859v19.292
		c0,2.134-1.655,3.868-3.698,3.868h-67.582c-2.043,0-3.697-1.734-3.697-3.868v-19.292c0-2.131,1.654-3.859,3.697-3.859H526.213z"/>
	<path display="inline" fill="#F8CB91" d="M585.555,1327.022c0,2.14,1.729,3.869,3.864,3.869h19.288c2.14,0,3.868-1.729,3.868-3.869
		v-70.68c0-2.131-1.729-3.86-3.868-3.86h-19.288c-2.135,0-3.864,1.729-3.864,3.86V1327.022z"/>
	<path display="inline" fill="#F8CB91" d="M541.565,1306.454c-2.038,0-3.688,1.729-3.688,3.859v19.292
		c0,2.134,1.65,3.868,3.688,3.868h67.401c2.039,0,3.685-1.734,3.685-3.868v-19.292c0-2.131-1.646-3.859-3.685-3.859H541.565z"/>
	<path display="inline" fill="#79BCBE" d="M483.794,1275.469c0,2.135-1.884,3.864-4.216,3.864h-20.361
		c-2.322,0-4.213-1.729-4.213-3.864v-40.824c0-2.134,1.891-3.863,4.213-3.863h20.361c2.332,0,4.216,1.729,4.216,3.863V1275.469z"/>
	<path display="inline" fill="#79BCBE" d="M613.319,1275.469c0,2.135-1.817,3.864-4.061,3.864h-19.602
		c-2.239,0-4.06-1.729-4.06-3.864v-40.824c0-2.134,1.82-3.863,4.06-3.863h19.602c2.243,0,4.061,1.729,4.061,3.863V1275.469z"/>
	<path display="inline" fill="#093756" d="M528.206,1185.253c0,2.139-1.729,3.869-3.869,3.869h-20.298
		c-2.135,0-3.863-1.73-3.863-3.869v-5.797c0-2.135,1.729-3.864,3.863-3.864h20.298c2.14,0,3.869,1.729,3.869,3.864V1185.253z"/>
	<path display="inline" fill="#093756" d="M569.464,1185.253c0,2.139-1.729,3.869-3.864,3.869h-20.3
		c-2.135,0-3.868-1.73-3.868-3.869v-5.797c0-2.135,1.733-3.864,3.868-3.864h20.3c2.135,0,3.864,1.729,3.864,3.864V1185.253z"/>
	<path display="inline" fill="#093756" d="M815.663,774.049h-586.66c-53.299,0-96.928,41.274-100.739,93.603
		c17.324-32.369,52.115-54.492,92.249-54.492H824.02c40.255,0,75.137,22.266,92.402,54.8
		C912.766,815.491,869.069,774.049,815.663,774.049"/>
	<path display="inline" fill="#89CDCC" d="M931.48,821.005c-27.812,0-50.355-23.24-50.355-51.906v-139.76
		c-0.956-0.255-1.916-0.489-2.882-0.722v85.707c0,28.67-22.547,51.91-50.356,51.91c-27.812,0-50.363-23.24-50.363-51.91v-90.194
		h-1.629v90.194c0,28.67-22.544,51.91-50.349,51.91c-27.818,0-50.366-23.24-50.366-51.91v-90.194h-1.628v90.194
		c0,28.67-22.546,51.91-50.357,51.91c-27.812,0-50.354-23.24-50.354-51.91v-90.194h-1.63v90.194c0,28.67-22.551,51.91-50.361,51.91
		c-27.809,0-50.359-23.24-50.359-51.91v-90.194h-1.629v90.194c0,28.67-22.543,51.91-50.358,51.91
		c-27.808,0-50.357-23.24-50.357-51.91c0,28.67-22.544,51.91-50.355,51.91c-27.811,0-50.358-23.24-50.358-51.91
		c0,28.67-22.544,51.91-50.358,51.91c-27.81,0-50.359-23.24-50.359-51.91v54.775c0,28.666-22.542,51.906-50.355,51.906
		c-21.534,0-39.858-13.962-47.06-33.558v87.636h55.357h3.312c0-2.502,0.122-4.976,0.3-7.432
		c3.809-52.325,47.436-93.603,100.733-93.603h586.664c53.406,0,97.099,41.441,100.763,93.906c0.159,2.36,0.276,4.729,0.276,7.128
		h3.166h0.008h60.35v-93.164C974.687,804.374,954.988,821.005,931.48,821.005"/>
	<path display="inline" fill="#79BCBE" d="M208.223,624.129c-14.394,0-28.308,1.993-41.509,5.627v84.562
		c0,28.67,22.549,51.915,50.359,51.915c27.814,0,50.358-23.244,50.358-51.915v-90.19H208.223z"/>
	<path display="inline" fill="#ED5949" d="M267.433,624.129v90.19c0,28.67,22.545,51.915,50.356,51.915
		c27.814,0,50.355-23.244,50.355-51.915v-90.19H267.433z"/>
	<path display="inline" fill="#79BCBE" d="M368.145,714.319c0,28.67,22.545,51.915,50.358,51.915
		c27.813,0,50.357-23.244,50.357-51.915v-90.19H368.145V714.319z"/>
	<path display="inline" fill="#ED5949" d="M520.845,766.233c27.818,0,50.365-23.244,50.365-51.915v-90.194H470.489v90.194
		C470.489,742.989,493.036,766.233,520.845,766.233"/>
	<path display="inline" fill="#79BCBE" d="M623.194,766.233c27.815,0,50.357-23.244,50.357-51.915v-90.194H572.84v90.194
		C572.84,742.989,595.382,766.233,623.194,766.233"/>
	<path display="inline" fill="#ED5949" d="M725.542,766.233c27.813,0,50.356-23.244,50.356-51.915v-90.194H675.18v90.194
		C675.18,742.989,697.722,766.233,725.542,766.233"/>
	<path display="inline" fill="#79BCBE" d="M827.887,766.233c27.813,0,50.356-23.244,50.356-51.915v-85.702
		c-11.834-2.875-24.188-4.492-36.938-4.492h-63.778v90.194C777.527,742.989,800.074,766.233,827.887,766.233"/>
	<path display="inline" fill="#ED5949" d="M977.969,707.174c-19.016-37.876-54.224-66.605-96.848-77.835v139.756
		c0,28.67,22.547,51.91,50.357,51.91c23.515,0,43.204-16.631,48.747-39.09v-49.144C980.226,724.035,979.424,715.493,977.969,707.174
		"/>
	<path display="inline" fill="#ED5949" d="M116.36,821.005c27.812,0,50.356-23.24,50.356-51.91v-54.771v-84.567
		c-41.866,11.539-76.395,40.038-95.158,77.417c-1.454,8.319-2.258,16.861-2.258,25.597v54.676
		C76.496,807.043,94.824,821.005,116.36,821.005"/>
</g>
<g id="Layer_6">
	<rect x="539.16" y="1343.703" fill="#ECF3F7" width="38.634" height="1.033"/>
	<g>
		<path fill="#ECF3F7" d="M532.471,640.442v21.762h11.082h27.552v-21.989c-0.508,0.128-1.016,0.228-1.547,0.228H532.471z"/>
		<polygon fill="#6AAAA7" points="723.467,724.952 666.236,1275.742 704.856,1275.742 762.104,724.952 		"/>
		<path fill="#B8CCD3" d="M723.467,724.952h38.638c0-34.08-13.034-61.71-69.597-61.71h-38.634
			C710.442,663.242,723.467,690.872,723.467,724.952"/>
		<rect x="571.104" y="662.209" fill="#D2E1E8" width="11.075" height="1.038"/>
		<rect x="543.553" y="662.209" fill="#D2E1E8" width="27.558" height="1.038"/>
		<path fill="#062A3F" d="M569.558,614.676h-38.634c4.865,0,8.809,5.764,8.809,12.881c0,4.348-1.481,8.174-3.743,10.508
			c-1.026,1.07-2.226,1.807-3.519,2.144v0.224h37.087c0.531,0,1.039-0.09,1.547-0.224c4.12-1.067,7.262-6.308,7.262-12.651
			C578.366,620.44,574.416,614.676,569.558,614.676"/>
		<polygon fill="#FFFFFF" points="532.471,662.209 532.471,640.442 530.924,640.442 453.368,640.442 450.894,640.442 
			450.894,662.209 467.465,662.209 		"/>
		<path fill="#ECF3F7" d="M532.471,640.442v-0.228c-0.508,0.128-1.01,0.228-1.547,0.228H532.471z"/>
		<polygon fill="#89CDCC" points="582.18,724.952 577.787,724.952 543.553,724.952 539.154,724.952 539.154,723.914 
			397.874,723.914 455.104,1274.703 539.154,1274.703 577.787,1274.703 577.787,1275.742 666.23,1275.742 723.467,724.952 		"/>
		<rect x="543.553" y="723.914" fill="#D2E1E8" width="34.234" height="1.034"/>
		<rect x="577.787" y="723.914" fill="#D2E1E8" width="4.393" height="1.034"/>
		<path fill="#D2E1E8" d="M450.894,662.209v0.976c5.089-0.602,10.526-0.976,16.571-0.976H450.894z"/>
		<path fill="#D2E1E8" d="M723.467,724.952c0-34.08-13.024-61.71-69.593-61.71H582.18h-11.075h-27.552v-1.032h-11.082h-64.999
			c-6.052,0-11.489,0.374-16.584,0.976c-10.573,1.264-19.199,3.752-26.124,7.285c-20.952,10.657-26.891,30.575-26.891,53.443h141.28
			h4.398h34.234h4.393v1.038H723.467z"/>
		<rect x="539.154" y="723.914" fill="#D2E1E8" width="4.392" height="1.034"/>
		<path fill="#43646C" d="M535.995,638.065h-3.519v2.144C533.764,639.877,534.963,639.135,535.995,638.065"/>
		<path fill="#43646C" d="M450.894,639.86v0.572h2.474C452.506,640.432,451.686,640.203,450.894,639.86"/>
		<path fill="#43646C" d="M448.302,638.065c0.78,0.806,1.66,1.388,2.592,1.795v-1.795H448.302z"/>
		<path fill="#093756" d="M530.93,614.676h-77.562c-4.859,0-8.803,5.764-8.803,12.881c0,4.348,1.482,8.174,3.736,10.508h2.592v1.795
			c0.792,0.337,1.612,0.572,2.474,0.572h77.562c0.531,0,1.033-0.09,1.541-0.224v-2.144h3.524c2.256-2.334,3.743-6.16,3.743-10.508
			C539.738,620.44,535.789,614.676,530.93,614.676"/>
		<rect x="67.181" y="1029.117" fill="#FBAB21" width="907.639" height="98.338"/>
		<polygon fill="#093756" points="276.731,1272.449 238.115,1078.289 276.731,884.111 353.968,884.111 392.572,1078.289 
			353.968,1272.449 		"/>
		<polygon fill="#093756" points="695.825,1272.449 657.209,1078.289 695.825,884.111 773.05,884.111 811.66,1078.289 
			773.05,1272.449 		"/>
		<polygon fill="#093756" points="811.684,1272.449 773.062,1078.289 811.684,884.111 888.916,884.111 927.52,1078.289 
			888.916,1272.449 		"/>
		<polygon fill="#062A3F" points="354.718,884.111 315.341,884.111 353.963,1078.283 315.341,1272.461 354.718,1272.461 
			393.334,1078.283 		"/>
		<polygon fill="#062A3F" points="889.665,884.111 850.294,884.111 888.909,1078.283 850.294,1272.461 889.665,1272.461 
			928.281,1078.283 		"/>
		<polygon fill="#093756" points="238.103,884.111 198.732,884.111 160.872,884.111 122.262,1078.283 160.872,1272.461 
			198.732,1272.461 238.103,1272.461 276.713,1078.283 		"/>
	</g>
	<path fill="#FBAB21" d="M687.817,1199.671c8.493,0,15.411,6.917,15.411,15.415v222.83c0,8.5-6.918,15.412-15.411,15.412h-43.155
		c-8.494,0-15.407-6.912-15.407-15.412v-222.83c0-8.498,6.913-15.415,15.407-15.415H687.817 M687.817,1147.28h-43.155
		c-37.446,0-67.813,30.351-67.813,67.806v222.83c0,37.451,30.367,67.813,67.813,67.813h43.155c37.45,0,67.802-30.362,67.802-67.813
		v-222.83C755.619,1177.631,725.268,1147.28,687.817,1147.28"/>
	<path fill="#DD9127" d="M755.619,1311.104v-96.019c0-37.455-30.352-67.806-67.802-67.806h-27.36
		c37.451,0,67.813,30.351,67.813,67.806v77.299v18.72c10.791,9.511,20.032,20.733,27.349,33.231
		c11.74,20.016,18.492,43.31,18.492,68.201c0,36.134-14.197,68.939-37.3,93.192h27.364c23.087-24.253,37.29-57.059,37.29-93.192
		C801.466,1372.126,783.721,1335.877,755.619,1311.104"/>
	<path fill="#FBAB21" d="M755.619,1344.325c-7.316-12.487-16.558-23.71-27.349-33.229v-18.711
		c-18.585-9.614-39.665-15.079-62.031-15.079c-34.277,0-65.558,12.777-89.385,33.79c-28.098,24.787-45.848,61.03-45.848,101.441
		c0,36.134,14.208,68.929,37.296,93.192h168.509c23.103-24.264,37.3-57.059,37.3-93.192
		C774.111,1387.646,767.359,1364.352,755.619,1344.325"/>
	<polygon fill="#FFFFFF" points="648.857,1460.162 630.619,1460.162 665.296,1389.539 630.619,1389.781 630.619,1374.625 
		681.475,1374.625 681.475,1388.746 	"/>
	<g>
		<path fill="#79BCBE" d="M480.671,1296.003c11.369,0,20.621,9.245,20.621,20.619v174.668c0,11.373-9.252,20.627-20.621,20.627
			h-33.826c-11.371,0-20.624-9.254-20.624-20.627v-174.668c0-11.374,9.252-20.619,20.624-20.619H480.671 M480.671,1263.463h-33.826
			c-29.354,0-53.152,23.8-53.152,53.159v174.668c0,29.358,23.798,53.154,53.152,53.154h33.826c29.358,0,53.158-23.796,53.158-53.154
			v-174.668C533.829,1287.263,510.029,1263.463,480.671,1263.463"/>
		<path fill="#65AAAA" d="M533.827,1391.886v-75.264c0-29.359-23.8-53.159-53.156-53.159h-21.444
			c29.359,0,53.156,23.8,53.156,53.159v60.588v14.676c8.46,7.459,15.707,16.256,21.444,26.045
			c9.199,15.691,14.489,33.953,14.489,53.461c0,28.33-11.131,54.042-29.233,73.061h21.445c18.099-19.019,29.237-44.73,29.237-73.061
			C569.766,1439.72,555.85,1411.313,533.827,1391.886"/>
		<path fill="#79BCBE" d="M533.827,1417.931c-5.737-9.789-12.984-18.586-21.444-26.045v-14.676
			c-14.568-7.539-31.095-11.818-48.625-11.818c-26.871,0-51.384,10.02-70.066,26.494c-22.025,19.428-35.938,47.834-35.938,79.506
			c0,28.33,11.136,54.042,29.233,73.061h132.096c18.103-19.019,29.233-44.73,29.233-73.061
			C548.316,1451.884,543.026,1433.622,533.827,1417.931"/>
		<line fill="#FFFFFF" x1="431.978" y1="1471.696" x2="432.451" y2="1470.72"/>
		<polyline fill="#FFFFFF" points="461.247,1481.392 461.247,1506.208 471.844,1506.208 471.844,1481.538 471.844,1471.048 
			471.844,1470.979 471.844,1466.644 461.247,1466.644 461.247,1470.954 		"/>
		<polyline fill="#FFFFFF" points="461.247,1470.954 446.288,1470.837 445.046,1470.829 463.141,1427.298 451.877,1427.245 
			432.451,1470.724 431.976,1471.606 431.976,1481.538 440.946,1481.481 459.154,1481.363 461.247,1481.392 		"/>
	</g>
</g>
<g id="Layer_2" display="none">
	<g display="inline">
		<polygon fill="#EFF3F6" points="805.734,662.513 722.53,518.388 721.479,518.388 804.683,662.513 		"/>
		<path fill="#093756" d="M85.085,744.349c-10.045,37.292-15.498,76.46-15.498,116.906c0,40.308,5.404,79.337,15.379,116.49
			l67.438-116.787L85.085,744.349z"/>
		<path fill="#093756" d="M201.05,1178.352c54.666,54.597,123.392,95.062,200.229,115.698l-66.793-115.698H201.05z"/>
		<path fill="#093756" d="M400.854,428.59c-76.372,20.595-144.701,60.784-199.148,114.954h132.782L400.854,428.59z"/>
		<path fill="#093756" d="M833.776,543.544c-54.447-54.181-122.767-94.359-199.148-114.954l66.365,114.954H833.776z"/>
		<path fill="#093756" d="M700.993,1178.352l-66.792,115.688c76.858-20.636,145.573-61.092,200.229-115.688H700.993z"/>
		<path fill="#093756" d="M950.515,977.745c9.985-37.153,15.38-76.183,15.38-116.49c0-40.446-5.454-79.614-15.488-116.906
			l-67.319,116.589L950.515,977.745z"/>
		<polygon fill="#093756" points="700.993,860.958 609.372,702.256 700.993,543.544 699.823,543.544 608.203,702.256 
			427.279,702.256 335.647,543.544 334.487,543.544 426.119,702.256 334.487,860.958 426.119,1019.649 334.507,1178.352 
			335.657,1178.352 427.289,1019.649 608.203,1019.649 699.835,1178.352 700.993,1178.352 609.372,1019.649 		"/>
		<path fill="#FFFFFF" d="M335.647,543.544l91.632,158.702h180.924l91.62-158.702h1.182l-66.377-114.945
			c-37.283-10.044-76.441-15.497-116.877-15.497c-40.467,0-79.625,5.453-116.897,15.497l-66.367,114.945H335.647z"/>
		<path fill="#FFFFFF" d="M609.372,702.246l91.621,158.712h182.094l67.319-116.609c-20.813-77.146-61.616-146.08-116.62-200.805
			H700.993L609.372,702.246z"/>
		<path fill="#FFFFFF" d="M334.487,860.958L334.487,860.958l91.632-158.702l-91.632-158.712H201.705
			c-55.003,54.725-95.827,123.659-116.62,200.805l67.309,116.609H334.487z"/>
		<path fill="#FFFFFF" d="M426.119,1019.649l-91.632-158.691H152.403L84.966,977.745c20.685,77.017,61.3,145.881,116.074,200.606
			h133.447L426.119,1019.649z"/>
		<path fill="#FFFFFF" d="M699.835,1178.352l-91.632-158.702H427.279l-91.622,158.702h-1.17l66.793,115.698
			c37.154,9.966,76.163,15.379,116.461,15.379c40.297,0,79.306-5.424,116.46-15.389l66.792-115.688H699.835z"/>
		<path fill="#FFFFFF" d="M700.993,860.958l-91.621,158.691l91.621,158.702h133.438c54.785-54.726,95.409-123.59,116.084-200.606
			l-67.428-116.787H700.993z"/>
		<g opacity="0.3">
			<g>
				<defs>
					<rect id="SVGID_1_" x="466.764" y="413.102" width="499.131" height="896.327"/>
				</defs>
				<clipPath id="SVGID_2_">
					<use xlink:href="#SVGID_1_"  overflow="visible"/>
				</clipPath>
				<path clip-path="url(#SVGID_2_)" fill="#093756" d="M517.741,413.102c-17.253,0-34.25,1.07-50.987,2.974
					C690.236,441.4,863.931,631,863.931,861.255c0,230.265-173.694,419.864-397.177,445.189c16.737,1.904,33.734,2.975,50.987,2.975
					c247.518,0,448.154-200.656,448.154-448.164C965.895,613.746,765.259,413.102,517.741,413.102"/>
			</g>
		</g>
	</g>
	<polygon display="inline" fill="#89CDCC" points="521.75,1358.408 552.314,1338.083 195.882,802.113 166.231,823.785 	"/>
	
		<rect x="-22.327" y="1066.696" transform="matrix(0.5537 0.8327 -0.8327 0.5537 1066.853 251.6088)" display="inline" fill="#ED5949" width="642.025" height="108.884"/>
	<polygon display="inline" fill="#89CDCC" points="514.505,1358.408 483.945,1338.083 840.368,802.113 870.019,823.785 	"/>
	<polygon display="inline" fill="#ED5949" points="514.484,1358.296 869.998,823.688 960.66,883.979 605.142,1418.588 	"/>
	<path display="inline" fill="#FBAB21" d="M647.303,1414.647c0,70.336-57.021,127.361-127.362,127.361
		c-70.342,0-127.378-57.025-127.378-127.361c0-70.348,57.036-127.374,127.378-127.374
		C590.282,1287.273,647.303,1344.3,647.303,1414.647"/>
	<path display="inline" fill="#D27F28" d="M619.234,1414.647c0,54.84-44.463,99.304-99.299,99.304
		c-54.84,0-99.293-44.464-99.293-99.304c0-54.838,44.453-99.305,99.293-99.305C574.771,1315.343,619.234,1359.81,619.234,1414.647"
		/>
</g>
</svg>
