<?xml version="1.0" encoding="utf-8"?>
<!-- Generator: Adobe Illustrator 16.0.3, SVG Export Plug-In . SVG Version: 6.00 Build 0)  -->
<!DOCTYPE svg PUBLIC "-//W3C//DTD SVG 1.1//EN" "http://www.w3.org/Graphics/SVG/1.1/DTD/svg11.dtd">
<svg version="1.1" xmlns="http://www.w3.org/2000/svg" xmlns:xlink="http://www.w3.org/1999/xlink" x="0px" y="0px" width="1042px"
	 height="1764px" viewBox="0 0 1042 1764" enable-background="new 0 0 1042 1764" xml:space="preserve">
<g id="Layer_1">
	<g>
		<rect x="418.637" y="458.358" fill="#E2B686" width="220.743" height="55.39"/>
		<polygon fill="#093756" points="127.045,1442.004 72.673,1432.737 184.449,776.497 238.81,785.764 		"/>
		<path fill="#ED5949" d="M926.723,1475.584c-142.43,0.726-633.435-1.403-829.701-2.129c-14.275-0.048-31.217-39.712-31.217-39.712
			h903.872C969.677,1433.743,941.009,1475.515,926.723,1475.584"/>
		<path fill="#6CADAD" d="M603.378,1372.877c0,40.319-32.669,72.987-72.978,72.987c-40.309,0-72.977-32.668-72.977-72.987V903.285
			c0-40.31,32.668-72.978,72.977-72.978c40.309,0,72.978,32.668,72.978,72.978V1372.877z"/>
		<path fill="#89CDCC" d="M685.796,1145.464c0,40.297-32.667,72.965-72.977,72.965c-40.32,0-72.978-32.668-72.978-72.965
			l-97.934-279.948c0-40.297,130.591-262.632,170.911-262.632c40.31,0,72.977,32.674,72.977,72.988V1145.464z"/>
		<path fill="#89CDCC" d="M815.825,1362.65c11.35,20.641-8.085,53.099-43.409,72.521c-35.313,19.423-73.142,18.44-84.489-2.176
			l-132.171-240.378c-11.338-20.616,8.097-53.098,43.409-72.52c35.312-19.399,73.141-18.441,84.479,2.176L815.825,1362.65z"/>
		<path fill="#FEDCB7" d="M393.503,433.839c1.837,18.024,15.223,32.264,29.966,32.264l215.911,0.135c-0.526,1.27,0-7.88,0-7.88
			l23.261-152.997l-283.236-10.572L393.503,433.839z"/>
		<path fill="#FBAB21" d="M623.83,480.607l-211.887,12.502c-23.39,8.839-34.33,102.357-15.246,165.681l42.262,196.897
			l260.725-25.379l1.252-183.933C709.548,580.787,668.209,476.985,623.83,480.607"/>
		<path fill="#89CDCC" d="M438.948,855.687l2.984,9.829c8.413,27.929,34.973,47.035,60.012,45l143.93-11.724
			c25.039-2.048,48.147-25.215,51.927-54.15l1.872-14.334L438.948,855.687z"/>
		<path fill="#F8CB91" d="M463.041,801.279c0,6.389,5.148,11.56,11.537,11.56h57.625c6.377,0,11.561-5.171,11.561-11.56V590.118
			c0-6.383-5.184-11.548-11.561-11.548h-57.625c-6.389,0-11.537,5.166-11.537,11.548V801.279z"/>
		<path fill="#F8CB91" d="M263.942,739.804c-8.015,0-14.509,5.172-14.509,11.561v57.626c0,6.376,6.494,11.548,14.509,11.548h265.511
			c8.038,0,14.532-5.172,14.532-11.548v-57.626c0-6.389-6.494-11.561-14.532-11.561H263.942z"/>
		<path fill="#DD9027" d="M545.974,647.252c0,6.376-5.429,11.537-12.122,11.537h-58.573c-6.681,0-12.121-5.161-12.121-11.537
			V525.285c0-6.383,5.44-11.537,12.121-11.537h58.573c6.693,0,12.122,5.154,12.122,11.537V647.252z"/>
		<path fill="#ED5949" d="M666.068,305.49c2.984-17.106,3.394-34.125,1.696-50.623l-5.124,50.495L666.068,305.49z"/>
		<path fill="#ED5949" d="M369.61,294.432l9.794,0.369l-5.991-59.182C369.143,254.422,367.61,274.231,369.61,294.432"/>
		<path fill="#ED5949" d="M641.567,178.895c-25.133-39.378-66.073-66.669-116.666-68.553
			c-54.748-2.037-100.579,26.326-128.134,69.109c-10.846,16.808-18.756,35.868-23.354,56.169l5.991,59.169l283.248,10.572
			l5.112-50.495C664.91,227.166,655.76,201.126,641.567,178.895"/>
		<path fill="#6CADAD" d="M446.542,1356.824c-49.517,0-89.65,40.132-89.65,89.65h179.275
			C536.168,1396.956,496.048,1356.824,446.542,1356.824"/>
		<rect x="446.542" y="1356.824" fill="#6CADAD" width="158.086" height="89.65"/>
		<path fill="#89CDCC" d="M664.325,1398.548c-41.571,22.489-53.788,80.406-27.32,129.338l150.517-81.411
			C761.043,1397.519,705.898,1376.06,664.325,1398.548"/>
		<polygon fill="#89CDCC" points="844.982,1415.373 712.274,1487.191 664.325,1398.548 797.046,1326.729 		"/>
		<path fill="#ED5949" d="M260.959,791.708c-3.919,23.027-25.765,38.518-48.803,34.587c-23.027-3.92-38.53-25.765-34.599-48.792
			c3.92-23.038,25.765-38.542,48.803-34.61C249.387,746.801,264.891,768.657,260.959,791.708"/>
		<path fill="#093756" d="M249.82,789.801c-2.89,16.872-18.897,28.222-35.757,25.355c-16.884-2.878-28.222-18.896-25.367-35.757
			c2.89-16.873,18.896-28.222,35.769-25.355C241.337,756.922,252.687,772.939,249.82,789.801"/>
		<path fill="#093756" d="M229.156,1487.917c0,22.092-17.889,39.969-39.969,39.969c-22.091,0-39.993-17.877-39.993-39.969
			c0-22.067,17.901-39.969,39.993-39.969C211.267,1447.948,229.156,1465.85,229.156,1487.917"/>
		<path fill="#093756" d="M859.047,1500.437c0,22.091-17.9,39.97-39.992,39.97c-22.08,0-39.969-17.879-39.969-39.97
			s17.889-39.969,39.969-39.969C841.146,1460.468,859.047,1478.346,859.047,1500.437"/>
		<path fill="#ED5949" d="M457.423,281.456c0,8.975-7.277,16.247-16.251,16.247H266.493c-8.962,0-16.24-7.272-16.24-16.247
			c0-8.974,7.278-16.24,16.24-16.24h174.679C450.146,265.216,457.423,272.482,457.423,281.456"/>
	</g>
</g>
<g id="Layer_2" display="none">
	<g display="inline">
		<polygon fill="#EFF3F6" points="805.734,662.513 722.53,518.388 721.479,518.388 804.683,662.513 		"/>
		<path fill="#093756" d="M85.085,744.349c-10.045,37.292-15.498,76.46-15.498,116.906c0,40.308,5.404,79.337,15.379,116.49
			l67.438-116.787L85.085,744.349z"/>
		<path fill="#093756" d="M201.05,1178.352c54.666,54.597,123.392,95.062,200.229,115.698l-66.793-115.698H201.05z"/>
		<path fill="#093756" d="M400.854,428.59c-76.372,20.595-144.701,60.784-199.148,114.954h132.782L400.854,428.59z"/>
		<path fill="#093756" d="M833.776,543.544c-54.447-54.181-122.767-94.359-199.148-114.954l66.365,114.954H833.776z"/>
		<path fill="#093756" d="M700.993,1178.352l-66.792,115.688c76.858-20.636,145.573-61.092,200.229-115.688H700.993z"/>
		<path fill="#093756" d="M950.515,977.745c9.985-37.153,15.38-76.183,15.38-116.49c0-40.446-5.454-79.614-15.488-116.906
			l-67.319,116.589L950.515,977.745z"/>
		<polygon fill="#093756" points="700.993,860.958 609.372,702.256 700.993,543.544 699.823,543.544 608.203,702.256 
			427.279,702.256 335.647,543.544 334.487,543.544 426.119,702.256 334.487,860.958 426.119,1019.649 334.507,1178.352 
			335.657,1178.352 427.289,1019.649 608.203,1019.649 699.835,1178.352 700.993,1178.352 609.372,1019.649 		"/>
		<path fill="#FFFFFF" d="M335.647,543.544l91.632,158.702h180.924l91.62-158.702h1.182l-66.377-114.945
			c-37.283-10.044-76.441-15.497-116.877-15.497c-40.467,0-79.625,5.453-116.897,15.497l-66.367,114.945H335.647z"/>
		<path fill="#FFFFFF" d="M609.372,702.246l91.621,158.712h182.094l67.319-116.609c-20.813-77.146-61.616-146.08-116.62-200.805
			H700.993L609.372,702.246z"/>
		<path fill="#FFFFFF" d="M334.487,860.958L334.487,860.958l91.632-158.702l-91.632-158.712H201.705
			c-55.003,54.725-95.827,123.659-116.62,200.805l67.309,116.609H334.487z"/>
		<path fill="#FFFFFF" d="M426.119,1019.649l-91.632-158.691H152.403L84.966,977.745c20.685,77.017,61.3,145.881,116.074,200.606
			h133.447L426.119,1019.649z"/>
		<path fill="#FFFFFF" d="M699.835,1178.352l-91.632-158.702H427.279l-91.622,158.702h-1.17l66.793,115.698
			c37.154,9.966,76.163,15.379,116.461,15.379c40.297,0,79.306-5.424,116.46-15.389l66.792-115.688H699.835z"/>
		<path fill="#FFFFFF" d="M700.993,860.958l-91.621,158.691l91.621,158.702h133.438c54.785-54.726,95.409-123.59,116.084-200.606
			l-67.428-116.787H700.993z"/>
		<g opacity="0.3">
			<g>
				<defs>
					<rect id="SVGID_1_" x="466.764" y="413.102" width="499.131" height="896.327"/>
				</defs>
				<clipPath id="SVGID_2_">
					<use xlink:href="#SVGID_1_"  overflow="visible"/>
				</clipPath>
				<path clip-path="url(#SVGID_2_)" fill="#093756" d="M517.741,413.102c-17.253,0-34.25,1.07-50.987,2.974
					C690.236,441.4,863.931,631,863.931,861.255c0,230.265-173.694,419.864-397.177,445.189c16.737,1.904,33.734,2.975,50.987,2.975
					c247.518,0,448.154-200.656,448.154-448.164C965.895,613.746,765.259,413.102,517.741,413.102"/>
			</g>
		</g>
	</g>
	<polygon display="inline" fill="#89CDCC" points="521.75,1358.408 552.314,1338.083 195.882,802.113 166.231,823.785 	"/>
	
		<rect x="-22.327" y="1066.696" transform="matrix(0.5537 0.8327 -0.8327 0.5537 1066.853 251.6088)" display="inline" fill="#ED5949" width="642.025" height="108.884"/>
	<polygon display="inline" fill="#89CDCC" points="514.505,1358.408 483.945,1338.083 840.368,802.113 870.019,823.785 	"/>
	<polygon display="inline" fill="#ED5949" points="514.484,1358.296 869.998,823.688 960.66,883.979 605.142,1418.588 	"/>
	<path display="inline" fill="#FBAB21" d="M647.303,1414.647c0,70.336-57.021,127.361-127.362,127.361
		c-70.342,0-127.378-57.025-127.378-127.361c0-70.348,57.036-127.374,127.378-127.374
		C590.282,1287.273,647.303,1344.3,647.303,1414.647"/>
	<path display="inline" fill="#D27F28" d="M619.234,1414.647c0,54.84-44.463,99.304-99.299,99.304
		c-54.84,0-99.293-44.464-99.293-99.304c0-54.838,44.453-99.305,99.293-99.305C574.771,1315.343,619.234,1359.81,619.234,1414.647"
		/>
</g>
</svg>
