<?xml version="1.0" encoding="utf-8"?>
<!-- Generator: Adobe Illustrator 16.0.3, SVG Export Plug-In . SVG Version: 6.00 Build 0)  -->
<!DOCTYPE svg PUBLIC "-//W3C//DTD SVG 1.1//EN" "http://www.w3.org/Graphics/SVG/1.1/DTD/svg11.dtd">
<svg version="1.1" id="Layer_1" xmlns="http://www.w3.org/2000/svg" xmlns:xlink="http://www.w3.org/1999/xlink" x="0px" y="0px"
	 width="2189px" height="1764px" viewBox="0 0 2189 1764" enable-background="new 0 0 2189 1764" xml:space="preserve">
<path fill="#093756" d="M551.83,1142.67c0,61.504-49.862,111.369-111.369,111.369c-61.513,0-111.376-49.865-111.376-111.369
	c0-61.5,49.863-111.365,111.376-111.365C501.967,1031.305,551.83,1081.17,551.83,1142.67"/>
<path fill="#093756" d="M1826.744,1158.572c0,61.498-49.86,111.364-111.362,111.364c-61.51,0-111.377-49.866-111.377-111.364
	c0-61.51,49.867-111.37,111.377-111.37C1776.884,1047.202,1826.744,1097.062,1826.744,1158.572"/>
<path fill="#FFFFFF" d="M452.128,790.834c-194.312,0-351.844,157.52-351.844,351.835c0,194.313,157.531,351.842,351.844,351.842
	c194.313,0,351.841-157.528,351.841-351.842C803.969,948.354,646.441,790.834,452.128,790.834 M452.128,1437.575
	c-162.87,0-294.91-132.031-294.91-294.905c0-162.868,132.041-294.906,294.91-294.906s294.907,132.038,294.907,294.906
	C747.035,1305.544,614.998,1437.575,452.128,1437.575"/>
<path fill="#093756" d="M454.868,756.668c-213.762,0-387.045,173.284-387.045,387.041c0,213.758,173.284,387.043,387.045,387.043
	c213.757,0,387.041-173.285,387.041-387.043C841.909,929.952,668.625,756.668,454.868,756.668 M454.868,1468.125
	c-179.166,0-324.417-145.247-324.417-324.416c0-179.174,145.251-324.416,324.417-324.416c179.164,0,324.412,145.242,324.412,324.416
	C779.28,1322.878,634.032,1468.125,454.868,1468.125"/>
<path fill="#FFFFFF" d="M1712.639,790.834c-194.316,0-351.852,157.52-351.852,351.835c0,194.313,157.535,351.842,351.852,351.842
	c194.317,0,351.844-157.528,351.844-351.842C2064.482,948.354,1906.956,790.834,1712.639,790.834 M1712.639,1437.575
	c-162.872,0-294.902-132.031-294.902-294.905c0-162.868,132.03-294.906,294.902-294.906c162.865,0,294.903,132.038,294.903,294.906
	C2007.542,1305.544,1875.504,1437.575,1712.639,1437.575"/>
<path fill="#093756" d="M1715.382,756.668c-213.761,0-387.045,173.284-387.045,387.041c0,213.758,173.284,387.043,387.045,387.043
	c213.754,0,387.045-173.285,387.045-387.043C2102.427,929.952,1929.136,756.668,1715.382,756.668 M1715.382,1468.125
	c-179.175,0-324.416-145.247-324.416-324.416c0-179.174,145.241-324.416,324.416-324.416c179.167,0,324.409,145.242,324.409,324.416
	C2039.791,1322.878,1894.549,1468.125,1715.382,1468.125"/>
<polygon fill="#6AAAA7" points="974.597,1202.255 911.724,1214.389 803.944,655.459 866.824,643.344 "/>
<polygon fill="#6AAAA7" points="1662.415,671.951 908.931,937.972 867.195,816.211 1625.395,563.972 "/>
<path fill="#093756" d="M1049.722,643.344c-1.679,17.706-26.692,32.053-55.848,32.053l-266.276,28.365
	c-29.159,0-63.927-42.646-64.511-60.418c-1.214-37.097,48.271-32.063,77.428-32.063h259.468
	C1029.145,611.28,1051.409,625.635,1049.722,643.344"/>
<path fill="#89CDCC" d="M1226.834,1143.709c0,82.854-115.777,137.53-234.521,124.717l-546.202-58.914
	c-28.568-3.085-49.832-32.427-49.832-65.803c0-33.368,21.263-62.715,49.832-65.8l546.202-58.914
	C1111.057,1006.18,1226.834,1060.856,1226.834,1143.709"/>
<path fill="#6AAAA7" d="M1676.836,439.925l-63.699,6.482l73.502,721.946l0.195-0.014c1.036,15.601,13.175,28.585,29.226,30.017
	c17.767,1.585,33.439-11.518,35.027-29.274C1751.458,1164.967,1676.836,439.925,1676.836,439.925"/>
<path fill="#093756" d="M1755.319,454.901c-1.679,17.706-26.687,32.056-55.848,32.056H1440c-29.156,0-51.42-14.351-49.739-32.056
	c1.684-17.706,26.692-32.056,55.854-32.056h259.464C1734.734,422.845,1757.013,437.195,1755.319,454.901"/>
<path fill="#D8E1E5" d="M1049.813,1046.121c-6.647,0-13.14,0.676-19.416,1.941c44.59,9.013,78.169,48.398,78.169,95.646
	c0,47.244-33.579,86.643-78.169,95.642c6.276,1.266,12.769,1.948,19.416,1.948c53.897,0,97.593-43.693,97.593-97.59
	S1103.71,1046.121,1049.813,1046.121"/>
<path fill="#FFFFFF" d="M1108.566,1143.709c0-47.241-33.579-86.641-78.169-95.64c-44.591,8.999-78.176,48.398-78.176,95.64
	c0,47.244,33.585,86.643,78.176,95.648C1074.987,1230.352,1108.566,1190.953,1108.566,1143.709"/>
<path fill="#093756" d="M1071.056,1286.109c0,11.733-9.509,21.242-21.243,21.242s-21.243-9.509-21.243-21.242v-143.452
	c0-11.733,9.509-21.25,21.243-21.25s21.243,9.517,21.243,21.25V1286.109z"/>
<path fill="#89CDCC" d="M1128.388,1311.435c0,11.531-9.349,20.872-20.871,20.872H992.117c-11.531,0-20.872-9.341-20.872-20.872
	c0-11.524,9.341-20.871,20.872-20.871h115.399C1119.039,1290.563,1128.388,1299.91,1128.388,1311.435"/>
<path fill="#EFF3F6" d="M1064.675,1143.709c0,8.205-6.655,14.863-14.862,14.863c-8.208,0-14.861-6.658-14.861-14.863
	c0-8.203,6.654-14.861,14.861-14.861C1058.02,1128.848,1064.675,1135.506,1064.675,1143.709"/>
<polygon fill="#093756" points="838.503,349.241 967.338,478.078 989.872,287.388 1023.076,291.313 997.449,508.188 
	996.387,517.188 996.042,520.116 977.775,535.801 814.861,372.883 "/>
<polygon fill="#093756" points="1001.266,511.95 1060.449,571.135 1036.8,594.778 977.802,535.775 "/>
<path fill="#86B7CE" d="M1177.543,282.19c0.008,0.038,0.014,0.072,0.021,0.115C1177.562,281.768,1177.543,281.09,1177.543,282.19"/>
<path fill="#DD583E" d="M1151.053,333.048c18.3-6.712,30.98-11.532,30.98-11.532c0-15.463-1.479-24.591-4.469-39.212
	c0.01,0.448,0.004,0.8-0.021-0.119c0,0-12.572,4.782-30.958,11.548c0,0.046,0,0.084,0,0.137
	C1149.572,308.481,1151.053,317.605,1151.053,333.048"/>
<path fill="#86B7CE" d="M947.383,335.3c1.724-0.121,3.444-0.266,5.198-0.266c12.044,0,20.915,6.491,29.166,14.19
	c37.995-7.261,164.816-55.468,164.816-55.468v-0.015c-46.176,16.995-129.1,46.542-142.594,44.752
	c-26.227-3.472-37.049-39.216-65.355-39.216c-15.094,0-29.119,4.544-40.823,12.294c3.226-0.427,6.494-0.728,9.841-0.728
	C924.9,310.843,935.663,324.134,947.383,335.3"/>
<path fill="#86B7CE" d="M1177.568,282.305c-0.01-0.038-0.016-0.073-0.023-0.119C1177.571,283.109,1177.571,282.757,1177.568,282.305
	"/>
<path fill="#86B7CE" d="M1146.561,293.741l0.023-0.008C1146.572,293.239,1146.561,292.766,1146.561,293.741"/>
<path fill="#86B7CE" d="M854.016,390.482c2.755-6.171,6.295-11.919,10.554-17.059c0-0.03-0.008-0.058-0.008-0.093
	c0-25.807,13.217-48.499,33.229-61.757c-36.23,4.822-64.21,35.766-64.21,73.32c0,2.571,1.377,5.375,1.349,7.809
	C842.218,392.631,848.755,391.957,854.016,390.482"/>
<path fill="#86B7CE" d="M1146.585,293.87c-0.007-0.038-0.013-0.072-0.022-0.111C1146.59,294.679,1146.59,294.327,1146.585,293.87"/>
<path fill="#86B7CE" d="M1146.585,293.87c0-0.046,0-0.086,0-0.137l-0.022,0.004v0.021
	C1146.572,293.798,1146.578,293.832,1146.585,293.87"/>
<path fill="#D8E1E5" d="M1146.008,287.75c0.055,1.979,0.506,3.98,0.518,5.972c18.424-6.764,31.016-11.531,31.016-11.531
	c0-2.03-0.471-4.065-0.527-6.077c-20.367-99.595-106.782-176.552-218.902-176.552c-37.563,0-74.99,8.575-108.622,23.588
	c24.971-7.692,51.254-11.95,77.614-11.95C1039.226,111.199,1125.637,188.156,1146.008,287.75"/>
<path fill="#ED5949" d="M1151.053,333.048c0-15.443-1.48-24.567-4.468-39.178c0.009,0.451,0.005,0.805-0.024-0.114l-0.029,0.012
	c0-0.016-0.004-0.034-0.004-0.046c-46.289,16.977-129.496,46.546-142.994,44.756c-26.23-3.478-37.052-39.221-65.355-39.221
	c-15.154,0-29.235,4.568-40.97,12.382c0.189-0.026,0.386-0.038,0.573-0.065c-20.005,13.258-33.657,35.937-33.657,61.731
	c0,0.038,0.103,1.231,0.103,1.261c0.012,0.844,0.342,0.617,0.303,1.554c-0.13,2.881-0.593,6.009-1.923,8.137
	c-1.141,1.81-2.07,3.063-3.526,4.073c-1.187,0.827-2.724,1.491-5.066,2.152c-5.26,1.47-11.797,2.148-19.087,2.221
	c-36.24,0.366-90.335-13.676-90.335-13.676c-1.456-2.931-2.813-5.654-4.099-8.232c3.88,8.82,8.468,17.117,14.476,28.56
	c2.568,4.892,5.375,10.291,8.539,16.653c0,0,50.587,13.159,85.36,12.702c14.408-0.187,26.12-2.691,30.367-9.464
	c1.783-2.838-0.711-6.712-0.711-10.159c0-25.807,13.215-48.498,33.227-61.754c3.23-0.435,6.499-0.729,9.846-0.729
	c28.301,0,39.128,35.738,65.353,39.217c18.875,2.502,164.102-52.742,164.102-52.742
	C1151.053,333.071,1151.053,333.061,1151.053,333.048"/>
<path fill="#FFFFFF" d="M1146.008,287.75c-20.371-99.593-106.782-176.55-218.904-176.55c-26.36,0-52.643,4.258-77.614,11.95
	c-81.588,36.417-140.731,110.972-124.342,194.775c5.149,26.325,9.343,40.196,14.911,52.848c1.283,2.579,2.639,5.302,4.097,8.235
	c0,0,54.065,14.032,90.307,13.673c10.151-0.103,18.845-1.368,24.621-4.351c1.452-1.014,2.384-2.267,3.522-4.073
	c1.332-2.128,1.794-5.256,1.922-8.137c-0.225-0.945-0.404-1.896-0.404-2.812c0-25.742,13.151-48.4,33.083-61.669
	c11.735-7.811,25.816-12.382,40.969-12.382c28.304,0,39.13,35.743,65.354,39.221c13.5,1.79,96.705-27.775,142.994-44.756
	C1146.514,291.73,1146.062,289.729,1146.008,287.75"/>
<path fill="#DD583E" d="M991.012,305.687c0,7.366,5.968,13.338,13.334,13.338c7.368,0,13.339-5.973,13.339-13.338
	c0-7.364-5.972-13.333-13.339-13.333C996.98,292.354,991.012,298.323,991.012,305.687"/>
<path fill="#DD583E" d="M823.91,368.512c0,7.362,5.97,13.332,13.335,13.332c7.366,0,13.338-5.97,13.338-13.332
	c0-7.37-5.972-13.34-13.338-13.34C829.88,355.172,823.91,361.142,823.91,368.512"/>
<polygon fill="#466973" points="968.074,478.763 1001.265,511.95 977.802,535.775 944.432,502.406 "/>
<polygon fill="#79BCBE" points="968.587,487.724 991.771,510.912 975.382,527.546 952.077,504.238 "/>
</svg>
