<?xml version="1.0" encoding="utf-8"?>
<!-- Generator: Adobe Illustrator 16.0.3, SVG Export Plug-In . SVG Version: 6.00 Build 0)  -->
<!DOCTYPE svg PUBLIC "-//W3C//DTD SVG 1.1//EN" "http://www.w3.org/Graphics/SVG/1.1/DTD/svg11.dtd">
<svg version="1.1" id="Layer_1" xmlns="http://www.w3.org/2000/svg" xmlns:xlink="http://www.w3.org/1999/xlink" x="0px" y="0px"
	 width="218.9px" height="176.4px" viewBox="0 0 218.9 176.4" enable-background="new 0 0 218.9 176.4" xml:space="preserve">
<g>
	<path fill="#D8E1E5" d="M85.759,143.206c0-1.461,0.365-2.854,1.024-4.136h-6.157v17.33h10.268v-4.639
		C87.754,149.703,85.759,146.636,85.759,143.206"/>
	<path fill="#D8E1E5" d="M53.828,143.206c0-1.461,0.365-2.854,1.023-4.136h-6.158v17.33h10.268v-4.639
		C55.822,149.703,53.828,146.636,53.828,143.206"/>
	<path fill="#093756" d="M103.693,143.355h-3.893c0.015,2.452,0.015,2.452,0.856,3.051c4.573,3.252-2.028,8.371-10.513,7.713H40.026
		c-0.524,0-1.039-0.029-1.542-0.083c0,2.632,2.45,4.286,6.605,4.286h50.119c7.273-1.512,11.979-4.966,11.979-9.226
		C107.188,146.816,105.838,144.768,103.693,143.355"/>
	<path fill="#344E55" d="M108.471,134.785l-2.038,0.146c0.468,0.572,0.902,0.983,0.703,1.775c-0.398,1.58-3.669,5.854-5.646,6.648
		h1.424c1.671,0,6.362-4.854,6.362-6.648C109.276,135.887,108.938,135.357,108.471,134.785"/>
	<path fill="#093756" d="M107.136,136.707c0.119-0.811-0.234-1.203-0.704-1.776h-60.32c-0.402,0.552-0.646,1.242-0.646,1.996
		c0,1.794,1.354,3.25,3.026,3.25h30.401l7.334,3.179h15.262C103.467,142.562,106.894,138.342,107.136,136.707"/>
	<rect x="45.467" y="136.927" fill="#093756" width="16.721" height="6.429"/>
	<path fill="#FFFFFF" d="M48.038,96.125h15.546l0.082-2.363H48.038c0,0-3.404,0.043-3.759,1.633
		c-0.211,0.944-0.24,2.131-0.155,3.436c0.033-0.382,0.082-0.744,0.155-1.072C44.633,96.166,48.038,96.125,48.038,96.125"/>
	<path fill="#C6D9D7" d="M79.865,121.576c3.137,0.882,12.698,2.475,12.698,2.475c0.689,0.849,0.958,2.756,1.024,4.802
		c0.078-2.793-0.07-5.991-1.024-7.164c0,0-10.083-1.837-13.219-2.72c-4.152-1.168-15.23-5.797-16.257-6.229l0.58,2.031
		C63.667,114.771,75.52,120.354,79.865,121.576"/>
	<path fill="#EFF3F6" d="M63.558,99.22l-0.044,1.272C63.55,100.043,63.568,99.615,63.558,99.22"/>
	<path fill="#EFF3F6" d="M109.047,136.002c0.002,0.072,0.004,0.146,0.007,0.221c0.041-0.676,0.018-1.7-0.007-2.583H93.468
		c-0.097,1.395-0.21,2.362-0.21,2.362H109.047z"/>
	<path fill="#EFF3F6" d="M93.468,133.64c0.095-1.356,0.174-3.118,0.119-4.787c-0.07,2.563-0.33,4.787-0.33,4.787H93.468z"/>
	<path fill="#EFF3F6" d="M63.519,98.59c0.022,0.199,0.034,0.411,0.041,0.63l0.107-3.096h-0.082l-0.083,2.355
		C63.507,98.518,63.514,98.552,63.519,98.59"/>
	<path fill="#EFF3F6" d="M63.006,112.705c0,0,0.033,0.015,0.082,0.035l0.304-8.717c0.155-1.156,0.225-2.212,0.127-3.07
		c-0.004-0.038-0.012-0.073-0.017-0.111l0.013-0.35c-0.03,0.377-0.068,0.764-0.123,1.168L63.006,112.705z"/>
	<path fill="#FFFFFF" d="M45.378,136.707h16.791h46.833c0.015-0.078,0.026-0.178,0.036-0.285c0.006-0.061,0.011-0.13,0.016-0.199
		c-0.003-0.074-0.005-0.148-0.007-0.221h-15.79c0,0,0.113-0.968,0.211-2.362h-0.211c0,0,0.26-2.224,0.33-4.787
		c-0.066-2.046-0.335-3.953-1.024-4.802c0,0-9.561-1.592-12.698-2.475c-4.345-1.223-16.778-8.836-16.778-8.836
		c-0.048-0.021-0.082-0.035-0.082-0.035l0.385-11.045c0.055-0.404,0.094-0.791,0.124-1.168l0.044-1.272
		c-0.005-0.219-0.017-0.431-0.04-0.63c-0.004-0.038-0.012-0.074-0.017-0.111l0.083-2.354H48.038c0,0-3.404,0.041-3.759,1.632
		c-0.074,0.329-0.123,0.691-0.155,1.073c0.307,4.732,2.098,11.045,2.094,13.246c0,0.5-0.015,1.078-0.038,1.705
		c0.024,0.247,0.038,0.469,0.038,0.658c-0.005,3.674-0.645,11.321-1.665,14.828c-0.402,1.383-0.624,2.592-0.718,3.643
		C44.119,135.672,45.378,136.707,45.378,136.707"/>
	<path fill="#548F8A" d="M109.361,132.228c-1.702-4.052-6.071-7.647-16.798-10.539l0.045,2.478c8.813,2.75,12.594,6.07,14.15,9.77
		c0.246,0.588,0.549,1.489,0.377,2.771h2.141C110.167,134.477,109.706,133.049,109.361,132.228"/>
	<path fill="#89CDCC" d="M106.759,133.936c-1.556-3.699-5.337-7.02-14.151-9.77l0.23,12.541h14.298
		C107.308,135.425,107.005,134.523,106.759,133.936"/>
	<path fill="#89CDCC" d="M67.062,118.531c-1.624-1.342-3.529-3.993-5.071-5.84c-0.209-3.679,1.006-18.93,1.006-18.93
		s4.191-0.771,6.553,0c0,0-2.194,14.74,0,17.998c2.192,3.256,9.794,7.209,9.794,7.209s-0.042,5.266-7.091,2.72
		c0-0.021,0.001-0.035,0.001-0.035S70.886,121.688,67.062,118.531"/>
	<path fill="none" stroke="#FDFEFF" stroke-width="2.558" stroke-miterlimit="10" d="M70.404,112.807
		c-0.962,1.031-5.189,2.428-5.189,2.428"/>
	<path fill="none" stroke="#FDFEFF" stroke-width="2.558" stroke-miterlimit="10" d="M72.836,114.986
		c-0.827,1.219-4.874,2.437-4.874,2.437"/>
	<path fill="none" stroke="#FDFEFF" stroke-width="2.558" stroke-miterlimit="10" d="M75.9,117.03
		c-0.811,1.405-5.014,2.962-5.014,2.962"/>
	<path fill="#093756" d="M119.841,108.787c0,1.814-1.473,3.287-3.288,3.287H97.765c-1.815,0-3.288-1.473-3.288-3.287
		c0-1.816,1.473-3.289,3.288-3.289h18.788C118.368,105.498,119.841,106.971,119.841,108.787"/>
	
		<line fill="none" stroke="#C7C6C6" stroke-width="2.601" stroke-miterlimit="10" x1="24.691" y1="68.883" x2="43.967" y2="93.418"/>
	
		<line fill="none" stroke="#C7C6C6" stroke-width="2.601" stroke-miterlimit="10" x1="21.473" y1="86.508" x2="29.516" y2="96.926"/>
	<line fill="none" stroke="#C7C6C6" stroke-width="2.601" stroke-miterlimit="10" x1="25.115" y1="48.804" x2="57.18" y2="90.439"/>
	
		<line fill="none" stroke="#C7C6C6" stroke-width="2.601" stroke-miterlimit="10" x1="191.823" y1="70.562" x2="172.546" y2="95.098"/>
	
		<line fill="none" stroke="#C7C6C6" stroke-width="2.601" stroke-miterlimit="10" x1="195.325" y1="86.996" x2="186.671" y2="98.205"/>
	
		<line fill="none" stroke="#C7C6C6" stroke-width="2.601" stroke-miterlimit="10" x1="189.832" y1="49.745" x2="157.767" y2="91.381"/>
	
		<line fill="none" stroke="#C7C6C6" stroke-width="2.601" stroke-miterlimit="10" x1="43.968" y1="45.786" x2="26.696" y2="53.051"/>
	<line fill="none" stroke="#C7C6C6" stroke-width="2.601" stroke-miterlimit="10" x1="47.92" y1="61.132" x2="22.608" y2="69.577"/>
	
		<line fill="none" stroke="#C7C6C6" stroke-width="2.601" stroke-miterlimit="10" x1="55.496" y1="74.584" x2="18.653" y2="85.568"/>
	
		<line fill="none" stroke="#C7C6C6" stroke-width="2.601" stroke-miterlimit="10" x1="62.39" y1="88.988" x2="14.989" y2="100.385"/>
	
		<line fill="none" stroke="#C7C6C6" stroke-width="2.601" stroke-miterlimit="10" x1="171.561" y1="47.084" x2="188.832" y2="54.35"/>
	
		<line fill="none" stroke="#C7C6C6" stroke-width="2.601" stroke-miterlimit="10" x1="167.607" y1="62.43" x2="192.92" y2="70.875"/>
	
		<line fill="none" stroke="#C7C6C6" stroke-width="2.601" stroke-miterlimit="10" x1="160.033" y1="75.881" x2="196.875" y2="86.866"/>
	
		<line fill="none" stroke="#C7C6C6" stroke-width="2.601" stroke-miterlimit="10" x1="153.139" y1="90.287" x2="200.539" y2="101.683"/>
	<line fill="none" stroke="#C7C6C6" stroke-width="2.601" stroke-miterlimit="10" x1="83.372" y1="31.749" x2="91.797" y2="88.99"/>
	
		<line fill="none" stroke="#C7C6C6" stroke-width="2.601" stroke-miterlimit="10" x1="107.162" y1="31.749" x2="107.162" y2="88.99"/>
	<line fill="none" stroke="#C7C6C6" stroke-width="2.601" stroke-miterlimit="10" x1="59.572" y1="31.749" x2="79.425" y2="88.99"/>
	
		<line fill="none" stroke="#C7C6C6" stroke-width="2.601" stroke-miterlimit="10" x1="130.52" y1="31.998" x2="122.45" y2="88.988"/>
	
		<line fill="none" stroke="#C7C6C6" stroke-width="2.601" stroke-miterlimit="10" x1="154.319" y1="31.998" x2="135.154" y2="88.988"/>
	
		<line fill="none" stroke="#C7C6C6" stroke-width="2.601" stroke-miterlimit="10" x1="47.92" y1="61.132" x2="166.403" y2="61.245"/>
	
		<line fill="none" stroke="#C7C6C6" stroke-width="2.601" stroke-miterlimit="10" x1="46.314" y1="45.786" x2="170.951" y2="45.786"/>
	
		<line fill="none" stroke="#C7C6C6" stroke-width="2.601" stroke-miterlimit="10" x1="55.496" y1="74.584" x2="162.184" y2="74.697"/>
	
		<line fill="none" stroke="#C7C6C6" stroke-width="2.601" stroke-miterlimit="10" x1="62.39" y1="88.988" x2="156.338" y2="88.988"/>
	<line fill="none" stroke="#DD583E" stroke-width="5.202" stroke-miterlimit="10" x1="37.796" y1="30.369" x2="62.39" y2="88.988"/>
	
		<line fill="none" stroke="#DD583E" stroke-width="5.202" stroke-miterlimit="10" x1="179.033" y1="30.369" x2="152.697" y2="90.535"/>
	<path fill="none" stroke="#ED5949" stroke-width="5.202" stroke-miterlimit="10" d="M203.918,108.786l-18-72.78
		c-0.777-3.138-3.854-5.637-6.885-5.637H37.796c-3.033,0-6.109,2.499-6.884,5.637l-18.001,72.78"/>
	
		<line fill="none" stroke="#EFF3F6" stroke-width="2.119" stroke-miterlimit="10" x1="14.989" y1="100.385" x2="14.989" y2="100.385"/>
	<path fill="#093756" d="M185.66,149.766c-4.828-0.709-28.203,0.962-28.203,0.962l-45.154-99.65l-2.597,1.889l47.718,104.262
		c0,0,27.504,2.663,29.928,1.275C189.281,157.399,187.861,150.088,185.66,149.766"/>
</g>
</svg>
